<svg viewBox="0 0 1900 1000" xmlns="http://www.w3.org/2000/svg" font-family="Helvetica, Arial, sans-serif">
<marker id="ay" viewBox="0 0 10 10" refX="8.5" refY="5" markerWidth="5.5" markerHeight="5.5" orient="auto-start-reverse"><path d="M0,0 L10,5 L0,10 z" fill="#F2A900"/></marker>
<marker id="ab" viewBox="0 0 10 10" refX="8.5" refY="5" markerWidth="5.5" markerHeight="5.5" orient="auto-start-reverse"><path d="M0,0 L10,5 L0,10 z" fill="#2E74B5"/></marker>
<marker id="ag" viewBox="0 0 10 10" refX="8.5" refY="5" markerWidth="5.5" markerHeight="5.5" orient="auto-start-reverse"><path d="M0,0 L10,5 L0,10 z" fill="#444444"/></marker>
<rect width="1900" height="1000" fill="#ffffff"/>
<rect x="30" y="25" width="340" height="950" rx="18" fill="#ffffff" stroke="#3b3b3b" stroke-width="3"/>
<text x="200.0" y="77" text-anchor="middle" font-size="30" font-weight="bold" fill="#111">Home LAN</text>
<text x="200.0" y="109" text-anchor="middle" font-size="21" fill="#333">(The Cameras)</text>
<rect x="410" y="25" width="860" height="950" rx="18" fill="#ffffff" stroke="#3b3b3b" stroke-width="3"/>
<text x="840.0" y="77" text-anchor="middle" font-size="30" font-weight="bold" fill="#111">Homelab Server</text>
<text x="840.0" y="109" text-anchor="middle" font-size="21" fill="#333">(Homelab Core)</text>
<rect x="1310" y="25" width="265" height="950" rx="18" fill="#ffffff" stroke="#3b3b3b" stroke-width="3"/>
<text x="1442.5" y="77" text-anchor="middle" font-size="30" font-weight="bold" fill="#111">The Internet</text>
<text x="1442.5" y="109" text-anchor="middle" font-size="21" fill="#333">(Cloud Bridge)</text>
<rect x="1615" y="25" width="255" height="950" rx="18" fill="#ffffff" stroke="#3b3b3b" stroke-width="3"/>
<text x="1742.5" y="77" text-anchor="middle" font-size="30" font-weight="bold" fill="#111">iPhone</text>
<text x="1742.5" y="109" text-anchor="middle" font-size="21" fill="#333">(End User)</text>
<g transform="translate(200,235)"><rect x="-34" y="-30" width="68" height="10" rx="4" fill="#8a8f98"/><path d="M-26,-20 A26,26 0 0 0 26,-20 Z" fill="#c8ccd2"/><circle cx="0" cy="-4" r="13" fill="#3d4450"/><circle cx="0" cy="-4" r="6" fill="#5aa0d8"/></g>
<text x="200" y="295" text-anchor="middle" font-size="19" font-weight="bold" fill="#111">Dahua PTZ camera</text>
<text x="200" y="319" text-anchor="middle" font-size="15" fill="#444">RTSP + dvrip control</text>
<g transform="translate(200,475)"><rect x="-32" y="-16" width="52" height="26" rx="8" fill="#c8ccd2"/><rect x="16" y="-19" width="14" height="32" rx="4" fill="#8a8f98"/><circle cx="23" cy="-3" r="7" fill="#3d4450"/><rect x="-30" y="10" width="8" height="14" fill="#8a8f98"/><rect x="-38" y="22" width="26" height="6" rx="3" fill="#8a8f98"/></g>
<text x="200" y="535" text-anchor="middle" font-size="19" font-weight="bold" fill="#111">Tapo camera</text>
<text x="200" y="559" text-anchor="middle" font-size="15" fill="#444">RTSP</text>
<g transform="translate(200,715)"><rect x="-32" y="-16" width="52" height="26" rx="8" fill="#c8ccd2"/><rect x="16" y="-19" width="14" height="32" rx="4" fill="#8a8f98"/><circle cx="23" cy="-3" r="7" fill="#3d4450"/><rect x="-30" y="10" width="8" height="14" fill="#8a8f98"/><rect x="-38" y="22" width="26" height="6" rx="3" fill="#8a8f98"/></g>
<text x="200" y="775" text-anchor="middle" font-size="19" font-weight="bold" fill="#111">Garage camera</text>
<text x="200" y="799" text-anchor="middle" font-size="15" fill="#444">RTSP</text>
<g transform="translate(531.0,221.0) scale(2.417)"><path d="M21.72 17.91V6.5l-.53-.49L9.05 18.52l-1.29-.06L24 1.53l-.33-.95-11.93 1-5.75 6.6v-.23l4.7-5.39-1.38-.77-9.11.77v2.85l1.91.46v.01l.19-.01-.56.66v10.6c.609-.126 1.22-.241 1.83-.36L14.12 5.22l.83-.04L0 21.44l9.67.82 1.35-.77 6.82-6.74v2.15l-5.72 5.57 11.26.95.35-.94v-3.16l-3.29-.18c.434-.403.858-.816 1.28-1.23z" fill="#1A7A1A"/></g>
<text x="560" y="310" text-anchor="middle" font-size="19" font-weight="bold" fill="#111">ffmpeg transcoder</text>
<text x="560" y="334" text-anchor="middle" font-size="15" fill="#444">RTSP &#8594; HLS segments</text>
<g transform="translate(831.0,221.0) scale(2.417)"><path d="M11.998,24c-0.321,0-0.641-0.084-0.922-0.247l-2.936-1.737c-0.438-0.245-0.224-0.332-0.08-0.383 c0.585-0.203,0.703-0.25,1.328-0.604c0.065-0.037,0.151-0.023,0.218,0.017l2.256,1.339c0.082,0.045,0.197,0.045,0.272,0l8.795-5.076 c0.082-0.047,0.134-0.141,0.134-0.238V6.921c0-0.099-0.053-0.192-0.137-0.242l-8.791-5.072c-0.081-0.047-0.189-0.047-0.271,0 L3.075,6.68C2.99,6.729,2.936,6.825,2.936,6.921v10.15c0,0.097,0.054,0.189,0.139,0.235l2.409,1.392 c1.307,0.654,2.108-0.116,2.108-0.89V7.787c0-0.142,0.114-0.253,0.256-0.253h1.115c0.139,0,0.255,0.112,0.255,0.253v10.021 c0,1.745-0.95,2.745-2.604,2.745c-0.508,0-0.909,0-2.026-0.551L2.28,18.675c-0.57-0.329-0.922-0.945-0.922-1.604V6.921 c0-0.659,0.353-1.275,0.922-1.603l8.795-5.082c0.557-0.315,1.296-0.315,1.848,0l8.794,5.082c0.57,0.329,0.924,0.944,0.924,1.603 v10.15c0,0.659-0.354,1.273-0.924,1.604l-8.794,5.078C12.643,23.916,12.324,24,11.998,24z M19.099,13.993 c0-1.9-1.284-2.406-3.987-2.763c-2.731-0.361-3.009-0.548-3.009-1.187c0-0.528,0.235-1.233,2.258-1.233 c1.807,0,2.473,0.389,2.747,1.607c0.024,0.115,0.129,0.199,0.247,0.199h1.141c0.071,0,0.138-0.031,0.186-0.081 c0.048-0.054,0.074-0.123,0.067-0.196c-0.177-2.098-1.571-3.076-4.388-3.076c-2.508,0-4.004,1.058-4.004,2.833 c0,1.925,1.488,2.457,3.895,2.695c2.88,0.282,3.103,0.703,3.103,1.269c0,0.983-0.789,1.402-2.642,1.402 c-2.327,0-2.839-0.584-3.011-1.742c-0.02-0.124-0.126-0.215-0.253-0.215h-1.137c-0.141,0-0.254,0.112-0.254,0.253 c0,1.482,0.806,3.248,4.655,3.248C17.501,17.007,19.099,15.91,19.099,13.993z" fill="#5FA04E"/></g>
<text x="860" y="310" text-anchor="middle" font-size="19" font-weight="bold" fill="#111">Camera app (Node.js)</text>
<text x="860" y="334" text-anchor="middle" font-size="15" fill="#444">web + API, PWA,</text>
<text x="860" y="354" text-anchor="middle" font-size="15" fill="#444">DVR timeline</text>
<g transform="translate(560,485)" stroke="#B54545" stroke-width="4" fill="none"><path d="M-24,10 A26,26 0 0 1 24,10"/><path d="M-13,4 A15,15 0 0 1 13,4"/><circle cx="0" cy="12" r="5" fill="#B54545" stroke="none"/></g>
<text x="560" y="545" text-anchor="middle" font-size="19" font-weight="bold" fill="#111">Motion detection</text>
<text x="560" y="569" text-anchor="middle" font-size="15" fill="#444">ffmpeg scene score,</text>
<text x="560" y="589" text-anchor="middle" font-size="15" fill="#444">per camera sensitivity</text>
<g transform="translate(860,485)"><ellipse cx="0" cy="-16" rx="26" ry="9" fill="#7A6BB0"/><path d="M-26,-16 V14 A26,9 0 0 0 26,14 V-16" fill="#9A8CC9"/><ellipse cx="0" cy="14" rx="26" ry="9" fill="#7A6BB0"/></g>
<text x="860" y="545" text-anchor="middle" font-size="19" font-weight="bold" fill="#111">Recording store</text>
<text x="860" y="569" text-anchor="middle" font-size="15" fill="#444">clips + JSON metadata,</text>
<text x="860" y="589" text-anchor="middle" font-size="15" fill="#444">pre/post roll</text>
<g transform="translate(531.0,691.0) scale(2.417)"><path d="M14.25.18l.9.2.73.26.59.3.45.32.34.34.25.34.16.33.1.3.04.26.02.2-.01.13V8.5l-.05.63-.13.55-.21.46-.26.38-.3.31-.33.25-.35.19-.35.14-.33.1-.3.07-.26.04-.21.02H8.77l-.69.05-.59.14-.5.22-.41.27-.33.32-.27.35-.2.36-.15.37-.1.35-.07.32-.04.27-.02.21v3.06H3.17l-.21-.03-.28-.07-.32-.12-.35-.18-.36-.26-.36-.36-.35-.46-.32-.59-.28-.73-.21-.88-.14-1.05-.05-1.23.06-1.22.16-1.04.24-.87.32-.71.36-.57.4-.44.42-.33.42-.24.4-.16.36-.1.32-.05.24-.01h.16l.06.01h8.16v-.83H6.18l-.01-2.75-.02-.37.05-.34.11-.31.17-.28.25-.26.31-.23.38-.2.44-.18.51-.15.58-.12.64-.1.71-.06.77-.04.84-.02 1.27.05zm-6.3 1.98l-.23.33-.08.41.08.41.23.34.33.22.41.09.41-.09.33-.22.23-.34.08-.41-.08-.41-.23-.33-.33-.22-.41-.09-.41.09zm13.09 3.95l.28.06.32.12.35.18.36.27.36.35.35.47.32.59.28.73.21.88.14 1.04.05 1.23-.06 1.23-.16 1.04-.24.86-.32.71-.36.57-.4.45-.42.33-.42.24-.4.16-.36.09-.32.05-.24.02-.16-.01h-8.22v.82h5.84l.01 2.76.02.36-.05.34-.11.31-.17.29-.25.25-.31.24-.38.2-.44.17-.51.15-.58.13-.64.09-.71.07-.77.04-.84.01-1.27-.04-1.07-.14-.9-.2-.73-.25-.59-.3-.45-.33-.34-.34-.25-.34-.16-.33-.1-.3-.04-.25-.02-.2.01-.13v-5.34l.05-.64.13-.54.21-.46.26-.38.3-.32.33-.24.35-.2.35-.14.33-.1.3-.06.26-.04.21-.02.13-.01h5.84l.69-.05.59-.14.5-.21.41-.28.33-.32.27-.35.2-.36.15-.36.1-.35.07-.32.04-.28.02-.21V6.07h2.09l.14.01zm-6.47 14.25l-.23.33-.08.41.08.41.23.33.33.23.41.08.41-.08.33-.23.23-.33.08-.41-.08-.41-.23-.33-.33-.23-.41-.08-.41.08z" fill="#3776AB"/></g>
<text x="560" y="780" text-anchor="middle" font-size="19" font-weight="bold" fill="#111">PTZ + light control</text>
<text x="560" y="804" text-anchor="middle" font-size="15" fill="#444">Python, ONVIF / dvrip</text>
<g transform="translate(1101.0,231.0) scale(2.417)"><path d="M13.2072.006c-.6216-.0478-1.2.1943-1.6211.582a2.15 2.15 0 0 0-.0938 3.0352l3.4082 3.5507a3.042 3.042 0 0 1-.664 4.6875l-.463.2383V7.2853a15.4198 15.4198 0 0 0-8.0174 10.4862v.0176l6.5487-3.3281v7.621L13.7794 24V13.6817l.8965-.4629a4.4432 4.4432 0 0 0 1.2207-7.0292l-3.371-3.5254a.7489.7489 0 0 1 .037-1.0547.7522.7522 0 0 1 1.0567.0371l.4668.4863-.006.0059 4.0704 4.2441a.0566.0566 0 0 0 .082 0 .06.06 0 0 0 0-.0703l-3.1406-5.1425-.1484.1425.1484-.1445C14.4945.3926 13.8287.0538 13.2072.006Zm-.9024 9.8652v2.9941l-4.1523 2.1484a13.9787 13.9787 0 0 1 2.7676-3.9277 14.1784 14.1784 0 0 1 1.3847-1.2148z" fill="#C72E49"/></g>
<text x="1130" y="320" text-anchor="middle" font-size="19" font-weight="bold" fill="#111">MinIO S3</text>
<text x="1130" y="344" text-anchor="middle" font-size="15" fill="#444">clip archive,</text>
<text x="1130" y="364" text-anchor="middle" font-size="15" fill="#444">mp4 + metadata</text>
<g transform="translate(1101.0,491.0) scale(2.417)"><path d="M12 .0387C5.3729.0384.0003 5.3931 0 11.9988c-.001 6.6066 5.372 11.9628 12 11.9625 6.628.0003 12.001-5.3559 12-11.9625-.0003-6.6057-5.3729-11.9604-12-11.96m-.829 5.4153h7.55l-7.5805 5.3284h5.1828L5.279 18.5436q2.9466-6.5444 5.892-13.0896" fill="#009688"/></g>
<text x="1130" y="580" text-anchor="middle" font-size="19" font-weight="bold" fill="#111">AI router (FastAPI)</text>
<text x="1130" y="604" text-anchor="middle" font-size="15" fill="#444">checks auth,</text>
<text x="1130" y="624" text-anchor="middle" font-size="15" fill="#444">forwards only</text>
<g transform="translate(1130,750)" fill="#7B4FB5"><circle cx="-20" cy="-14" r="7"/><circle cx="-20" cy="14" r="7"/><circle cx="20" cy="0" r="9"/><path d="M-14,-11 L12,-3 M-14,11 L12,3" stroke="#7B4FB5" stroke-width="4"/></g>
<text x="1130" y="800" text-anchor="middle" font-size="19" font-weight="bold" fill="#111">LiteLLM</text>
<text x="1130" y="824" text-anchor="middle" font-size="15" fill="#444">vision model,</text>
<text x="1130" y="844" text-anchor="middle" font-size="15" fill="#444">cloud or local GPU</text>
<g transform="translate(680.0,875.0) scale(1.667)"><path d="M13.983 11.078h2.119a.186.186 0 00.186-.185V9.006a.186.186 0 00-.186-.186h-2.119a.185.185 0 00-.185.185v1.888c0 .102.083.185.185.185m-2.954-5.43h2.118a.186.186 0 00.186-.186V3.574a.186.186 0 00-.186-.185h-2.118a.185.185 0 00-.185.185v1.888c0 .102.082.185.185.185m0 2.716h2.118a.187.187 0 00.186-.186V6.29a.186.186 0 00-.186-.185h-2.118a.185.185 0 00-.185.185v1.887c0 .102.082.185.185.186m-2.93 0h2.12a.186.186 0 00.184-.186V6.29a.185.185 0 00-.185-.185H8.1a.185.185 0 00-.185.185v1.887c0 .102.083.185.185.186m-2.964 0h2.119a.186.186 0 00.185-.186V6.29a.185.185 0 00-.185-.185H5.136a.186.186 0 00-.186.185v1.887c0 .102.084.185.186.186m5.893 2.715h2.118a.186.186 0 00.186-.185V9.006a.186.186 0 00-.186-.186h-2.118a.185.185 0 00-.185.185v1.888c0 .102.082.185.185.185m-2.93 0h2.12a.185.185 0 00.184-.185V9.006a.185.185 0 00-.184-.186h-2.12a.185.185 0 00-.184.185v1.888c0 .102.083.185.185.185m-2.964 0h2.119a.185.185 0 00.185-.185V9.006a.185.185 0 00-.184-.186h-2.12a.186.186 0 00-.186.186v1.887c0 .102.084.185.186.185m-2.92 0h2.12a.185.185 0 00.184-.185V9.006a.185.185 0 00-.184-.186h-2.12a.185.185 0 00-.184.185v1.888c0 .102.082.185.185.185M23.763 9.89c-.065-.051-.672-.51-1.954-.51-.338.001-.676.03-1.01.087-.248-1.7-1.653-2.53-1.716-2.566l-.344-.199-.226.327c-.284.438-.49.922-.612 1.43-.23.97-.09 1.882.403 2.661-.595.332-1.55.413-1.744.42H.751a.751.751 0 00-.75.748 11.376 11.376 0 00.692 4.062c.545 1.428 1.355 2.48 2.41 3.124 1.18.723 3.1 1.137 5.275 1.137.983.003 1.963-.086 2.93-.266a12.248 12.248 0 003.823-1.389c.98-.567 1.86-1.288 2.61-2.136 1.252-1.418 1.998-2.997 2.553-4.4h.221c1.372 0 2.215-.549 2.68-1.009.309-.293.55-.65.707-1.046l.098-.288Z" fill="#2496ED"/></g>
<text x="730" y="902" text-anchor="start" font-size="16" font-weight="bold" fill="#333">everything runs in Docker</text>
<g transform="translate(1413.0,221.0) scale(2.417)"><path d="M16.5088 16.8447c.1475-.5068.0908-.9707-.1553-1.3154-.2246-.3164-.6045-.499-1.0615-.5205l-8.6592-.1123a.1559.1559 0 0 1-.1333-.0713c-.0283-.042-.0351-.0986-.021-.1553.0278-.084.1123-.1484.2036-.1562l8.7359-.1123c1.0351-.0489 2.1601-.8868 2.5537-1.9136l.499-1.3013c.0215-.0561.0293-.1128.0147-.168-.5625-2.5463-2.835-4.4453-5.5499-4.4453-2.5039 0-4.6284 1.6177-5.3876 3.8614-.4927-.3658-1.1187-.5625-1.794-.499-1.2026.119-2.1665 1.083-2.2861 2.2856-.0283.31-.0069.6128.0635.894C1.5683 13.171 0 14.7754 0 16.752c0 .1748.0142.3515.0352.5273.0141.083.0844.1475.1689.1475h15.9814c.0909 0 .1758-.0645.2032-.1553l.12-.4268zm2.7568-5.5634c-.0771 0-.1611 0-.2383.0112-.0566 0-.1054.0415-.127.0976l-.3378 1.1744c-.1475.5068-.0918.9707.1543 1.3164.2256.3164.6055.498 1.0625.5195l1.8437.1133c.0557 0 .1055.0263.1329.0703.0283.043.0351.1074.0214.1562-.0283.084-.1132.1485-.204.1553l-1.921.1123c-1.041.0488-2.1582.8867-2.5527 1.914l-.1406.3585c-.0283.0713.0215.1416.0986.1416h6.5977c.0771 0 .1474-.0489.169-.126.1122-.4082.1757-.837.1757-1.2803 0-2.6025-2.125-4.727-4.7344-4.727" fill="#F38020"/></g>
<text x="1442" y="310" text-anchor="middle" font-size="19" font-weight="bold" fill="#111">Cloudflare</text>
<text x="1442" y="334" text-anchor="middle" font-size="15" fill="#444">Security (WAF, DDoS)</text>
<text x="1442" y="354" text-anchor="middle" font-size="15" fill="#444">DNS proxying</text>
<g transform="translate(1413.0,471.0) scale(2.417)"><path d="M12 0L1.605 6v12L12 24l10.395-6V6L12 0zm6 16.59c0 .705-.646 1.29-1.529 1.29-.631 0-1.351-.255-1.801-.81l-6-7.141v6.66c0 .721-.57 1.29-1.274 1.29H7.32c-.721 0-1.29-.6-1.29-1.29V7.41c0-.705.63-1.29 1.5-1.29.646 0 1.38.255 1.83.81l5.97 7.141V7.41c0-.721.6-1.29 1.29-1.29h.075c.72 0 1.29.6 1.29 1.29v9.18H18z" fill="#009639"/></g>
<text x="1442" y="560" text-anchor="middle" font-size="19" font-weight="bold" fill="#111">Reverse proxy</text>
<text x="1442" y="584" text-anchor="middle" font-size="15" fill="#444">HTTPS, port 443</text>
<g transform="translate(1413.0,711.0) scale(2.417)"><path d="M14.54.889l-3.63 1.773v18.17c-4.15-.52-7.27-2.78-7.27-5.5 0-2.58 2.8-4.75 6.63-5.41v-2.31C4.42 8.322 0 11.502 0 15.332c0 3.96 4.74 7.24 10.91 7.78l3.63-1.71V.888m.64 6.724v2.31c1.43.25 2.71.7 3.76 1.31l-1.97 1.11 7.03 1.53-.5-5.21-1.87 1.06c-1.74-1.06-3.96-1.81-6.45-2.11z" fill="#F78C40"/></g>
<text x="1442" y="800" text-anchor="middle" font-size="19" font-weight="bold" fill="#111">SSO (OIDC)</text>
<text x="1442" y="824" text-anchor="middle" font-size="15" fill="#444">login + group rights</text>
<text x="1442" y="844" text-anchor="middle" font-size="15" fill="#444">(viewer / PTZ / admin)</text>
<rect x="1672" y="200" width="142" height="288" rx="24" fill="#1c1c1e" stroke="#000" stroke-width="2"/>
<rect x="1682" y="212" width="122" height="264" rx="14" fill="#2c2c31"/>
<rect x="1712" y="206" width="62" height="9" rx="4.5" fill="#000"/>
<rect x="1690" y="240" width="106" height="70" rx="6" fill="#4a5568"/>
<circle cx="1743" cy="275" r="16" fill="#ffffff" opacity="0.9"/>
<path d="M1738,267 L1752,275 L1738,283 Z" fill="#1c1c1e"/>
<rect x="1690" y="320" width="106" height="12" rx="4" fill="#3f3f46"/>
<rect x="1690" y="340" width="76" height="12" rx="4" fill="#3f3f46"/>
<rect x="1690" y="366" width="106" height="34" rx="6" fill="#3a4a3f"/>
<rect x="1690" y="408" width="106" height="34" rx="6" fill="#3f3f46"/>
<text x="1743" y="540" text-anchor="middle" font-size="19" font-weight="bold" fill="#111">Progressive Web App</text>
<text x="1743" y="564" text-anchor="middle" font-size="15" fill="#444">installed on the</text>
<text x="1743" y="584" text-anchor="middle" font-size="15" fill="#444">home screen</text>
<text x="1743" y="660" text-anchor="middle" font-size="15" font-weight="bold" fill="#111"></text>
<text x="1743" y="684" text-anchor="middle" font-size="15" fill="#444">live view, DVR timeline,</text>
<text x="1743" y="704" text-anchor="middle" font-size="15" fill="#444">PTZ, AI tagged events</text>
<path d="M340,240 C 410,240 425,255 468,265" fill="none" stroke="#F2A900" stroke-width="4" marker-end="url(#ay)"/>
<path d="M340,480 C 405,480 420,300 468,285" fill="none" stroke="#F2A900" stroke-width="4" marker-end="url(#ay)"/>
<path d="M340,720 C 410,720 425,330 470,305" fill="none" stroke="#F2A900" stroke-width="4" marker-end="url(#ay)"/>
<text x="392" y="190" text-anchor="middle" font-size="15" font-weight="bold" fill="#111">Continuous</text>
<text x="392" y="209" text-anchor="middle" font-size="15" font-weight="bold" fill="#111">RTSP stream</text>
<path d="M645,275 L 818,275" fill="none" stroke="#F2A900" stroke-width="4" marker-end="url(#ay)"/>
<text x="730" y="262" text-anchor="middle" font-size="15" font-weight="bold" fill="#111">HLS</text>
<path d="M560,320 L 560,450" fill="none" stroke="#F2A900" stroke-width="4" marker-end="url(#ay)"/>
<text x="572" y="392" text-anchor="start" font-size="15" font-weight="bold" fill="#111">new segments</text>
<path d="M645,510 L 770,510" fill="none" stroke="#2E74B5" stroke-width="4" marker-end="url(#ab)"/>
<text x="707" y="497" text-anchor="middle" font-size="15" font-weight="bold" fill="#111">cut clip</text>
<path d="M950,480 C 1020,460 1030,330 1058,290" fill="none" stroke="#F2A900" stroke-width="4" marker-end="url(#ay)"/>
<text x="1008" y="385" text-anchor="middle" font-size="15" font-weight="bold" fill="#111" transform="rotate(-63 1008 385)">mp4 + metadata</text>
<path d="M955,505 C 1020,505 1050,512 1090,520" fill="none" stroke="#2E74B5" stroke-width="4" marker-end="url(#ab)"/>
<text x="1005" y="490" text-anchor="middle" font-size="15" font-weight="bold" fill="#111">sampled frames</text>
<path d="M1090,552 C 1040,558 1000,558 957,545" fill="none" stroke="#2E74B5" stroke-width="3" stroke-dasharray="7 6" marker-end="url(#ab)"/>
<text x="960" y="615" text-anchor="middle" font-size="15" font-weight="bold" fill="#111">JSON result</text>
<path d="M1130,600 L 1130,690" fill="none" stroke="#2E74B5" stroke-width="4" marker-end="url(#ab)"/>
<path d="M470,745 C 360,745 305,480 288,300" fill="none" stroke="#2E74B5" stroke-width="4" marker-end="url(#ab)"/>
<text x="322" y="610" text-anchor="middle" font-size="15" font-weight="bold" fill="#111" transform="rotate(-77 322 610)">PTZ + light commands</text>
<path d="M1672,330 C 1610,330 1580,290 1535,272" fill="none" stroke="#444444" stroke-width="4" marker-end="url(#ag)"/>
<text x="1596" y="296" text-anchor="middle" font-size="15" font-weight="bold" fill="#111">HTTPS</text>
<path d="M1442,340 L 1442,455" fill="none" stroke="#444444" stroke-width="4" marker-end="url(#ag)"/>
<path d="M1352,485 C 1290,455 1300,190 1150,182 L 905,182 Q 888,182 885,196 L 882,214" fill="none" stroke="#444444" stroke-width="4" marker-end="url(#ag)"/>
<text x="1085" y="168" text-anchor="middle" font-size="15" font-weight="bold" fill="#111">app + streams</text>
<path d="M1442,700 L 1442,595" fill="none" stroke="#444444" stroke-width="3" stroke-dasharray="7 6" marker-end="url(#ag)"/>
<text x="1454" y="655" text-anchor="start" font-size="15" font-weight="bold" fill="#111">OIDC login</text>
</svg>
