<svg viewBox="0 0 1900 1000" xmlns="http://www.w3.org/2000/svg" font-family="Helvetica, Arial, sans-serif">
<marker id="ay" viewBox="0 0 10 10" refX="8.5" refY="5" markerWidth="5.5" markerHeight="5.5" orient="auto-start-reverse"><path d="M0,0 L10,5 L0,10 z" fill="#F2A900"/></marker>
<marker id="ab" viewBox="0 0 10 10" refX="8.5" refY="5" markerWidth="5.5" markerHeight="5.5" orient="auto-start-reverse"><path d="M0,0 L10,5 L0,10 z" fill="#2E74B5"/></marker>
<marker id="ag" viewBox="0 0 10 10" refX="8.5" refY="5" markerWidth="5.5" markerHeight="5.5" orient="auto-start-reverse"><path d="M0,0 L10,5 L0,10 z" fill="#444444"/></marker>
<rect width="1900" height="1000" fill="#ffffff"/>
<rect x="30" y="25" width="640" height="950" rx="18" fill="#ffffff" stroke="#3b3b3b" stroke-width="3"/>
<text x="350.0" y="77" text-anchor="middle" font-size="30" font-weight="bold" fill="#111">Location B</text>
<text x="350.0" y="109" text-anchor="middle" font-size="21" fill="#333">(Remote Site - &#8216;The Edge&#8217;)</text>
<rect x="710" y="25" width="250" height="950" rx="18" fill="#ffffff" stroke="#3b3b3b" stroke-width="3"/>
<text x="835.0" y="77" text-anchor="middle" font-size="30" font-weight="bold" fill="#111">The Internet</text>
<text x="835.0" y="109" text-anchor="middle" font-size="21" fill="#333">(Cloud Bridge)</text>
<rect x="1000" y="25" width="560" height="950" rx="18" fill="#ffffff" stroke="#3b3b3b" stroke-width="3"/>
<text x="1280.0" y="77" text-anchor="middle" font-size="30" font-weight="bold" fill="#111">Location A</text>
<text x="1280.0" y="109" text-anchor="middle" font-size="21" fill="#333">(Homelab Core)</text>
<rect x="1600" y="25" width="270" height="950" rx="18" fill="#ffffff" stroke="#3b3b3b" stroke-width="3"/>
<text x="1735.0" y="77" text-anchor="middle" font-size="30" font-weight="bold" fill="#111">iPhone</text>
<text x="1735.0" y="109" text-anchor="middle" font-size="21" fill="#333">(End User)</text>
<g transform="translate(140,250)"><rect x="-34" y="-30" width="68" height="10" rx="4" fill="#8a8f98"/><path d="M-26,-20 A26,26 0 0 0 26,-20 Z" fill="#c8ccd2"/><circle cx="0" cy="-4" r="13" fill="#3d4450"/><circle cx="0" cy="-4" r="6" fill="#5aa0d8"/></g>
<text x="140" y="310" text-anchor="middle" font-size="19" font-weight="bold" fill="#111">Dahua PTZ camera</text>
<text x="140" y="334" text-anchor="middle" font-size="15" fill="#444">RTSP + dvrip control</text>
<g transform="translate(140,470)"><rect x="-32" y="-16" width="52" height="26" rx="8" fill="#c8ccd2"/><rect x="16" y="-19" width="14" height="32" rx="4" fill="#8a8f98"/><circle cx="23" cy="-3" r="7" fill="#3d4450"/><rect x="-30" y="10" width="8" height="14" fill="#8a8f98"/><rect x="-38" y="22" width="26" height="6" rx="3" fill="#8a8f98"/></g>
<text x="140" y="530" text-anchor="middle" font-size="19" font-weight="bold" fill="#111">Tapo camera</text>
<text x="140" y="554" text-anchor="middle" font-size="15" fill="#444">RTSP</text>
<g transform="translate(140,690)"><rect x="-32" y="-16" width="52" height="26" rx="8" fill="#c8ccd2"/><rect x="16" y="-19" width="14" height="32" rx="4" fill="#8a8f98"/><circle cx="23" cy="-3" r="7" fill="#3d4450"/><rect x="-30" y="10" width="8" height="14" fill="#8a8f98"/><rect x="-38" y="22" width="26" height="6" rx="3" fill="#8a8f98"/></g>
<text x="140" y="750" text-anchor="middle" font-size="19" font-weight="bold" fill="#111">Garage camera</text>
<text x="140" y="774" text-anchor="middle" font-size="15" fill="#444">RTSP</text>
<g transform="translate(451.0,211.0) scale(2.417)"><path d="M11.998,24c-0.321,0-0.641-0.084-0.922-0.247l-2.936-1.737c-0.438-0.245-0.224-0.332-0.08-0.383 c0.585-0.203,0.703-0.25,1.328-0.604c0.065-0.037,0.151-0.023,0.218,0.017l2.256,1.339c0.082,0.045,0.197,0.045,0.272,0l8.795-5.076 c0.082-0.047,0.134-0.141,0.134-0.238V6.921c0-0.099-0.053-0.192-0.137-0.242l-8.791-5.072c-0.081-0.047-0.189-0.047-0.271,0 L3.075,6.68C2.99,6.729,2.936,6.825,2.936,6.921v10.15c0,0.097,0.054,0.189,0.139,0.235l2.409,1.392 c1.307,0.654,2.108-0.116,2.108-0.89V7.787c0-0.142,0.114-0.253,0.256-0.253h1.115c0.139,0,0.255,0.112,0.255,0.253v10.021 c0,1.745-0.95,2.745-2.604,2.745c-0.508,0-0.909,0-2.026-0.551L2.28,18.675c-0.57-0.329-0.922-0.945-0.922-1.604V6.921 c0-0.659,0.353-1.275,0.922-1.603l8.795-5.082c0.557-0.315,1.296-0.315,1.848,0l8.794,5.082c0.57,0.329,0.924,0.944,0.924,1.603 v10.15c0,0.659-0.354,1.273-0.924,1.604l-8.794,5.078C12.643,23.916,12.324,24,11.998,24z M19.099,13.993 c0-1.9-1.284-2.406-3.987-2.763c-2.731-0.361-3.009-0.548-3.009-1.187c0-0.528,0.235-1.233,2.258-1.233 c1.807,0,2.473,0.389,2.747,1.607c0.024,0.115,0.129,0.199,0.247,0.199h1.141c0.071,0,0.138-0.031,0.186-0.081 c0.048-0.054,0.074-0.123,0.067-0.196c-0.177-2.098-1.571-3.076-4.388-3.076c-2.508,0-4.004,1.058-4.004,2.833 c0,1.925,1.488,2.457,3.895,2.695c2.88,0.282,3.103,0.703,3.103,1.269c0,0.983-0.789,1.402-2.642,1.402 c-2.327,0-2.839-0.584-3.011-1.742c-0.02-0.124-0.126-0.215-0.253-0.215h-1.137c-0.141,0-0.254,0.112-0.254,0.253 c0,1.482,0.806,3.248,4.655,3.248C17.501,17.007,19.099,15.91,19.099,13.993z" fill="#5FA04E"/></g>
<text x="480" y="300" text-anchor="middle" font-size="19" font-weight="bold" fill="#111">Camera app (Node.js)</text>
<text x="480" y="324" text-anchor="middle" font-size="15" fill="#444">Docker on the mini server:</text>
<text x="480" y="344" text-anchor="middle" font-size="15" fill="#444">ffmpeg RTSP &#8594; HLS,</text>
<text x="480" y="364" text-anchor="middle" font-size="15" fill="#444">web + API + PWA, PTZ (Python)</text>
<g transform="translate(480,485)" stroke="#B54545" stroke-width="4" fill="none"><path d="M-24,10 A26,26 0 0 1 24,10"/><path d="M-13,4 A15,15 0 0 1 13,4"/><circle cx="0" cy="12" r="5" fill="#B54545" stroke="none"/></g>
<text x="480" y="545" text-anchor="middle" font-size="19" font-weight="bold" fill="#111">Motion detection</text>
<text x="480" y="569" text-anchor="middle" font-size="15" fill="#444">ffmpeg scene score,</text>
<text x="480" y="589" text-anchor="middle" font-size="15" fill="#444">per camera sensitivity</text>
<g transform="translate(480,705)"><ellipse cx="0" cy="-16" rx="26" ry="9" fill="#7A6BB0"/><path d="M-26,-16 V14 A26,9 0 0 0 26,14 V-16" fill="#9A8CC9"/><ellipse cx="0" cy="14" rx="26" ry="9" fill="#7A6BB0"/></g>
<text x="480" y="765" text-anchor="middle" font-size="19" font-weight="bold" fill="#111">Recording store</text>
<text x="480" y="789" text-anchor="middle" font-size="15" fill="#444">clips + JSON metadata,</text>
<text x="480" y="809" text-anchor="middle" font-size="15" fill="#444">pre / post roll</text>
<g transform="translate(200,900)"><rect x="-34" y="-8" width="68" height="26" rx="8" fill="#FF7900"/><line x1="-18" y1="-8" x2="-26" y2="-34" stroke="#333" stroke-width="4" stroke-linecap="round"/><line x1="18" y1="-8" x2="26" y2="-34" stroke="#333" stroke-width="4" stroke-linecap="round"/><circle cx="-14" cy="5" r="3.5" fill="#fff"/><circle cx="0" cy="5" r="3.5" fill="#fff"/><circle cx="14" cy="5" r="3.5" fill="#fff"/></g>
<text x="200" y="945" text-anchor="middle" font-size="17" font-weight="bold" fill="#111">5G modem (Orange)</text>
<g transform="translate(806.0,251.0) scale(2.417)"><path d="M16.5088 16.8447c.1475-.5068.0908-.9707-.1553-1.3154-.2246-.3164-.6045-.499-1.0615-.5205l-8.6592-.1123a.1559.1559 0 0 1-.1333-.0713c-.0283-.042-.0351-.0986-.021-.1553.0278-.084.1123-.1484.2036-.1562l8.7359-.1123c1.0351-.0489 2.1601-.8868 2.5537-1.9136l.499-1.3013c.0215-.0561.0293-.1128.0147-.168-.5625-2.5463-2.835-4.4453-5.5499-4.4453-2.5039 0-4.6284 1.6177-5.3876 3.8614-.4927-.3658-1.1187-.5625-1.794-.499-1.2026.119-2.1665 1.083-2.2861 2.2856-.0283.31-.0069.6128.0635.894C1.5683 13.171 0 14.7754 0 16.752c0 .1748.0142.3515.0352.5273.0141.083.0844.1475.1689.1475h15.9814c.0909 0 .1758-.0645.2032-.1553l.12-.4268zm2.7568-5.5634c-.0771 0-.1611 0-.2383.0112-.0566 0-.1054.0415-.127.0976l-.3378 1.1744c-.1475.5068-.0918.9707.1543 1.3164.2256.3164.6055.498 1.0625.5195l1.8437.1133c.0557 0 .1055.0263.1329.0703.0283.043.0351.1074.0214.1562-.0283.084-.1132.1485-.204.1553l-1.921.1123c-1.041.0488-2.1582.8867-2.5527 1.914l-.1406.3585c-.0283.0713.0215.1416.0986.1416h6.5977c.0771 0 .1474-.0489.169-.126.1122-.4082.1757-.837.1757-1.2803 0-2.6025-2.125-4.727-4.7344-4.727" fill="#F38020"/></g>
<text x="835" y="345" text-anchor="middle" font-size="19" font-weight="bold" fill="#111">Cloudflare</text>
<text x="835" y="369" text-anchor="middle" font-size="15" fill="#444">Security (WAF, DDoS)</text>
<text x="835" y="389" text-anchor="middle" font-size="15" fill="#444">DNS proxying</text>
<g transform="translate(1101.0,211.0) scale(2.417)"><path d="M12 0L1.605 6v12L12 24l10.395-6V6L12 0zm6 16.59c0 .705-.646 1.29-1.529 1.29-.631 0-1.351-.255-1.801-.81l-6-7.141v6.66c0 .721-.57 1.29-1.274 1.29H7.32c-.721 0-1.29-.6-1.29-1.29V7.41c0-.705.63-1.29 1.5-1.29.646 0 1.38.255 1.83.81l5.97 7.141V7.41c0-.721.6-1.29 1.29-1.29h.075c.72 0 1.29.6 1.29 1.29v9.18H18z" fill="#009639"/></g>
<text x="1130" y="300" text-anchor="middle" font-size="19" font-weight="bold" fill="#111">Reverse proxy</text>
<text x="1130" y="324" text-anchor="middle" font-size="15" fill="#444">HTTPS, port 443</text>
<g transform="translate(1371.0,211.0) scale(2.417)"><path d="M13.2072.006c-.6216-.0478-1.2.1943-1.6211.582a2.15 2.15 0 0 0-.0938 3.0352l3.4082 3.5507a3.042 3.042 0 0 1-.664 4.6875l-.463.2383V7.2853a15.4198 15.4198 0 0 0-8.0174 10.4862v.0176l6.5487-3.3281v7.621L13.7794 24V13.6817l.8965-.4629a4.4432 4.4432 0 0 0 1.2207-7.0292l-3.371-3.5254a.7489.7489 0 0 1 .037-1.0547.7522.7522 0 0 1 1.0567.0371l.4668.4863-.006.0059 4.0704 4.2441a.0566.0566 0 0 0 .082 0 .06.06 0 0 0 0-.0703l-3.1406-5.1425-.1484.1425.1484-.1445C14.4945.3926 13.8287.0538 13.2072.006Zm-.9024 9.8652v2.9941l-4.1523 2.1484a13.9787 13.9787 0 0 1 2.7676-3.9277 14.1784 14.1784 0 0 1 1.3847-1.2148z" fill="#C72E49"/></g>
<text x="1400" y="300" text-anchor="middle" font-size="19" font-weight="bold" fill="#111">MinIO S3</text>
<text x="1400" y="324" text-anchor="middle" font-size="15" fill="#444">clip archive,</text>
<text x="1400" y="344" text-anchor="middle" font-size="15" fill="#444">mp4 + metadata</text>
<g transform="translate(1101.0,491.0) scale(2.417)"><path d="M12 .0387C5.3729.0384.0003 5.3931 0 11.9988c-.001 6.6066 5.372 11.9628 12 11.9625 6.628.0003 12.001-5.3559 12-11.9625-.0003-6.6057-5.3729-11.9604-12-11.96m-.829 5.4153h7.55l-7.5805 5.3284h5.1828L5.279 18.5436q2.9466-6.5444 5.892-13.0896" fill="#009688"/></g>
<text x="1130" y="580" text-anchor="middle" font-size="19" font-weight="bold" fill="#111">AI router (FastAPI)</text>
<text x="1130" y="604" text-anchor="middle" font-size="15" fill="#444">checks auth,</text>
<text x="1130" y="624" text-anchor="middle" font-size="15" fill="#444">forwards only</text>
<g transform="translate(1400,520)" fill="#7B4FB5"><circle cx="-20" cy="-14" r="7"/><circle cx="-20" cy="14" r="7"/><circle cx="20" cy="0" r="9"/><path d="M-14,-11 L12,-3 M-14,11 L12,3" stroke="#7B4FB5" stroke-width="4"/></g>
<text x="1400" y="580" text-anchor="middle" font-size="19" font-weight="bold" fill="#111">LiteLLM</text>
<text x="1400" y="604" text-anchor="middle" font-size="15" fill="#444">model routing</text>
<g transform="translate(1371.0,741.0) scale(2.417)"><path d="M8.948 8.798v-1.43a6.7 6.7 0 0 1 .424-.018c3.922-.124 6.493 3.374 6.493 3.374s-2.774 3.851-5.75 3.851c-.398 0-.787-.062-1.158-.185v-4.346c1.528.185 1.837.857 2.747 2.385l2.04-1.714s-1.492-1.952-4-1.952a6.016 6.016 0 0 0-.796.035m0-4.735v2.138l.424-.027c5.45-.185 9.01 4.47 9.01 4.47s-4.08 4.964-8.33 4.964c-.37 0-.733-.035-1.095-.097v1.325c.3.035.61.062.91.062 3.957 0 6.82-2.023 9.593-4.408.459.371 2.34 1.263 2.73 1.652-2.633 2.208-8.772 3.984-12.253 3.984-.335 0-.653-.018-.971-.053v1.864H24V4.063zm0 10.326v1.131c-3.657-.654-4.673-4.46-4.673-4.46s1.758-1.944 4.673-2.262v1.237H8.94c-1.528-.186-2.73 1.245-2.73 1.245s.68 2.412 2.739 3.11M2.456 10.9s2.164-3.197 6.5-3.533V6.201C4.153 6.59 0 10.653 0 10.653s2.35 6.802 8.948 7.42v-1.237c-4.84-.6-6.492-5.936-6.492-5.936z" fill="#76B900"/></g>
<text x="1400" y="830" text-anchor="middle" font-size="19" font-weight="bold" fill="#111">Vision model</text>
<text x="1400" y="854" text-anchor="middle" font-size="15" fill="#444">local GPU (Qwen)</text>
<text x="1400" y="874" text-anchor="middle" font-size="15" fill="#444">or cloud</text>
<g transform="translate(1101.0,741.0) scale(2.417)"><path d="M14.54.889l-3.63 1.773v18.17c-4.15-.52-7.27-2.78-7.27-5.5 0-2.58 2.8-4.75 6.63-5.41v-2.31C4.42 8.322 0 11.502 0 15.332c0 3.96 4.74 7.24 10.91 7.78l3.63-1.71V.888m.64 6.724v2.31c1.43.25 2.71.7 3.76 1.31l-1.97 1.11 7.03 1.53-.5-5.21-1.87 1.06c-1.74-1.06-3.96-1.81-6.45-2.11z" fill="#F78C40"/></g>
<text x="1130" y="830" text-anchor="middle" font-size="19" font-weight="bold" fill="#111">SSO (OIDC)</text>
<text x="1130" y="854" text-anchor="middle" font-size="15" fill="#444">login + group rights</text>
<text x="1130" y="874" text-anchor="middle" font-size="15" fill="#444">(viewer / PTZ / admin)</text>
<rect x="1665" y="200" width="142" height="288" rx="24" fill="#1c1c1e" stroke="#000" stroke-width="2"/>
<rect x="1675" y="212" width="122" height="264" rx="14" fill="#2c2c31"/>
<rect x="1705" y="206" width="62" height="9" rx="4.5" fill="#000"/>
<rect x="1683" y="240" width="106" height="70" rx="6" fill="#4a5568"/>
<circle cx="1736" cy="275" r="16" fill="#ffffff" opacity="0.9"/>
<path d="M1731,267 L1745,275 L1731,283 Z" fill="#1c1c1e"/>
<rect x="1683" y="320" width="106" height="12" rx="4" fill="#3f3f46"/>
<rect x="1683" y="340" width="76" height="12" rx="4" fill="#3f3f46"/>
<rect x="1683" y="366" width="106" height="34" rx="6" fill="#3a4a3f"/>
<rect x="1683" y="408" width="106" height="34" rx="6" fill="#3f3f46"/>
<text x="1736" y="560" text-anchor="middle" font-size="19" font-weight="bold" fill="#111">Progressive Web App</text>
<text x="1736" y="584" text-anchor="middle" font-size="15" fill="#444">installed on the</text>
<text x="1736" y="604" text-anchor="middle" font-size="15" fill="#444">home screen</text>
<text x="1736" y="680" text-anchor="middle" font-size="15" font-weight="bold" fill="#111"></text>
<text x="1736" y="704" text-anchor="middle" font-size="15" fill="#444">live view, DVR timeline,</text>
<text x="1736" y="724" text-anchor="middle" font-size="15" fill="#444">PTZ, AI tagged events</text>
<path d="M240,250 C 310,250 335,248 372,244" fill="none" stroke="#F2A900" stroke-width="4" marker-end="url(#ay)"/>
<path d="M240,470 C 315,470 335,300 376,266" fill="none" stroke="#F2A900" stroke-width="4" marker-end="url(#ay)"/>
<path d="M240,690 C 325,690 345,325 380,288" fill="none" stroke="#F2A900" stroke-width="4" marker-end="url(#ay)"/>
<text x="300" y="178" text-anchor="middle" font-size="15" font-weight="bold" fill="#111">Continuous</text>
<text x="300" y="197" text-anchor="middle" font-size="15" font-weight="bold" fill="#111">RTSP stream</text>
<path d="M480,388 L 480,447" fill="none" stroke="#F2A900" stroke-width="4" marker-end="url(#ay)"/>
<text x="492" y="424" text-anchor="start" font-size="15" font-weight="bold" fill="#111">new segments</text>
<path d="M480,600 L 480,668" fill="none" stroke="#2E74B5" stroke-width="4" marker-end="url(#ab)"/>
<text x="492" y="640" text-anchor="start" font-size="15" font-weight="bold" fill="#111">cut clip</text>
<path d="M400,775 C 310,800 260,835 233,868" fill="none" stroke="#F2A900" stroke-width="4" marker-end="url(#ay)"/>
<text x="287" y="848" text-anchor="middle" font-size="15" font-weight="bold" fill="#111" transform="rotate(-33 287 848)">mp4 + metadata</text>
<path d="M398,332 C 310,395 245,325 220,278" fill="none" stroke="#2E74B5" stroke-width="4" marker-end="url(#ab)"/>
<text x="297" y="380" text-anchor="middle" font-size="13" font-weight="bold" fill="#111" transform="rotate(-15 297 380)">PTZ + light commands</text>
<path d="M245,905 C 560,940 740,560 815,368" fill="none" stroke="#F2A900" stroke-width="4" marker-end="url(#ay)"/>
<text x="657" y="738" text-anchor="middle" font-size="15" font-weight="bold" fill="#111" transform="rotate(-58 657 738)">HTTPS + API key</text>
<path d="M782,262 C 700,245 660,240 590,240" fill="none" stroke="#444444" stroke-width="4" marker-end="url(#ag)"/>
<text x="688" y="222" text-anchor="middle" font-size="15" font-weight="bold" fill="#111">app + streams</text>
<path d="M888,282 C 970,268 1010,258 1064,248" fill="none" stroke="#F2A900" stroke-width="4" marker-end="url(#ay)"/>
<text x="972" y="230" text-anchor="middle" font-size="15" font-weight="bold" fill="#111">secure tunnel</text>
<path d="M1218,252 L 1322,252" fill="none" stroke="#F2A900" stroke-width="4" marker-end="url(#ay)"/>
<text x="1270" y="236" text-anchor="middle" font-size="13" font-weight="bold" fill="#111">mp4 + metadata</text>
<path d="M1130,342 L 1130,485" fill="none" stroke="#2E74B5" stroke-width="4" marker-end="url(#ab)"/>
<text x="1142" y="420" text-anchor="start" font-size="15" font-weight="bold" fill="#111">sampled frames</text>
<path d="M1106,485 L 1106,342" fill="none" stroke="#2E74B5" stroke-width="3" stroke-dasharray="7 6" marker-end="url(#ab)"/>
<text x="1092" y="418" text-anchor="middle" font-size="15" font-weight="bold" fill="#111" transform="rotate(-90 1092 418)">JSON result</text>
<path d="M1218,535 L 1322,535" fill="none" stroke="#2E74B5" stroke-width="4" marker-end="url(#ab)"/>
<path d="M1400,608 L 1400,732" fill="none" stroke="#2E74B5" stroke-width="4" marker-end="url(#ab)"/>
<path d="M1660,320 C 1420,150 1080,155 882,238" fill="none" stroke="#444444" stroke-width="4" marker-end="url(#ag)"/>
<text x="1270" y="152" text-anchor="middle" font-size="15" font-weight="bold" fill="#111">HTTPS</text>
<path d="M1212,782 C 1460,800 1620,610 1712,500" fill="none" stroke="#444444" stroke-width="3" stroke-dasharray="7 6" marker-end="url(#ag)"/>
<text x="1508" y="722" text-anchor="middle" font-size="15" font-weight="bold" fill="#111">OIDC login</text>
</svg>
